<svg width="59" height="18" viewBox="0 0 59 18" fill="none" xmlns="http://www.w3.org/2000/svg">
<path d="M6.88 17.2C5.62667 17.2 4.51333 16.96 3.54 16.48C2.56667 16 1.8 15.3333 1.24 14.48C0.693333 13.6133 0.42 12.6267 0.42 11.52C0.42 10.4133 0.693333 9.43333 1.24 8.58C1.8 7.72667 2.56667 7.06 3.54 6.58C4.51333 6.1 5.62667 5.86 6.88 5.86C8.21333 5.86 9.35333 6.14667 10.3 6.72C11.2467 7.29333 11.9 8.08667 12.26 9.1L8.76 10.82C8.53333 10.3133 8.25333 9.94667 7.92 9.72C7.6 9.49333 7.24667 9.38 6.86 9.38C6.52667 9.38 6.21333 9.46 5.92 9.62C5.64 9.78 5.41333 10.02 5.24 10.34C5.08 10.6467 5 11.04 5 11.52C5 12 5.08 12.4 5.24 12.72C5.41333 13.04 5.64 13.28 5.92 13.44C6.21333 13.6 6.52667 13.68 6.86 13.68C7.24667 13.68 7.6 13.5667 7.92 13.34C8.25333 13.1133 8.53333 12.7467 8.76 12.24L12.26 13.96C11.9 14.9733 11.2467 15.7667 10.3 16.34C9.35333 16.9133 8.21333 17.2 6.88 17.2ZM20.9047 5.86C21.7447 5.86 22.5047 6.03333 23.1847 6.38C23.8647 6.71333 24.398 7.24 24.7847 7.96C25.1847 8.68 25.3847 9.61333 25.3847 10.76V17H20.8647V11.54C20.8647 10.86 20.7447 10.38 20.5047 10.1C20.2647 9.80667 19.938 9.66 19.5247 9.66C19.218 9.66 18.9314 9.73333 18.6647 9.88C18.4114 10.0133 18.2047 10.24 18.0447 10.56C17.898 10.88 17.8247 11.3133 17.8247 11.86V17H13.3047V2.16H17.8247V9.26L16.7447 8.34C17.1714 7.51333 17.7447 6.89333 18.4647 6.48C19.198 6.06667 20.0114 5.86 20.9047 5.86ZM27.3477 17V6.06H31.6477V9.36L30.9477 8.42C31.281 7.56667 31.8143 6.92667 32.5477 6.5C33.281 6.07333 34.161 5.86 35.1877 5.86V9.86C34.9877 9.83333 34.8077 9.81333 34.6477 9.8C34.501 9.78667 34.3477 9.78 34.1877 9.78C33.5077 9.78 32.9477 9.96 32.5077 10.32C32.081 10.6667 31.8677 11.2733 31.8677 12.14V17H27.3477ZM36.4688 17V6.06H40.9888V17H36.4688ZM38.7288 5.18C37.9021 5.18 37.2421 4.96 36.7488 4.52C36.2554 4.08 36.0088 3.53333 36.0088 2.88C36.0088 2.22667 36.2554 1.68 36.7488 1.24C37.2421 0.799999 37.9021 0.579999 38.7288 0.579999C39.5554 0.579999 40.2154 0.786666 40.7088 1.2C41.2021 1.61333 41.4488 2.14667 41.4488 2.8C41.4488 3.49333 41.2021 4.06667 40.7088 4.52C40.2154 4.96 39.5554 5.18 38.7288 5.18ZM47.2722 17.2C46.3389 17.2 45.4189 17.1 44.5122 16.9C43.6055 16.7 42.8722 16.44 42.3122 16.12L43.5522 13.14C44.0722 13.4467 44.6722 13.6867 45.3522 13.86C46.0455 14.0333 46.7189 14.12 47.3722 14.12C47.9189 14.12 48.2855 14.0733 48.4722 13.98C48.6722 13.8867 48.7722 13.76 48.7722 13.6C48.7722 13.44 48.6589 13.3267 48.4322 13.26C48.2055 13.18 47.9055 13.12 47.5322 13.08C47.1589 13.04 46.7455 12.9933 46.2922 12.94C45.8522 12.8733 45.4055 12.78 44.9522 12.66C44.4989 12.54 44.0855 12.36 43.7122 12.12C43.3389 11.88 43.0389 11.56 42.8122 11.16C42.5855 10.7467 42.4722 10.2267 42.4722 9.6C42.4722 8.90667 42.6789 8.28 43.0922 7.72C43.5189 7.16 44.1455 6.71333 44.9722 6.38C45.8122 6.03333 46.8455 5.86 48.0722 5.86C48.8722 5.86 49.6722 5.93333 50.4722 6.08C51.2722 6.22667 51.9589 6.45333 52.5322 6.76L51.2922 9.74C50.7322 9.43333 50.1789 9.22667 49.6322 9.12C49.0989 9 48.5989 8.94 48.1322 8.94C47.5589 8.94 47.1655 8.99333 46.9522 9.1C46.7522 9.20667 46.6522 9.32667 46.6522 9.46C46.6522 9.62 46.7655 9.74 46.9922 9.82C47.2189 9.9 47.5189 9.96 47.8922 10C48.2655 10.04 48.6722 10.0933 49.1122 10.16C49.5655 10.2133 50.0122 10.3067 50.4522 10.44C50.9055 10.56 51.3189 10.74 51.6922 10.98C52.0655 11.22 52.3655 11.5467 52.5922 11.96C52.8189 12.36 52.9322 12.8733 52.9322 13.5C52.9322 14.1533 52.7255 14.7667 52.3122 15.34C51.8989 15.9 51.2722 16.3533 50.4322 16.7C49.5922 17.0333 48.5389 17.2 47.2722 17.2Z" fill="white"/>
<path d="M56.3408 17.2C55.5941 17.2 54.9674 16.96 54.4608 16.48C53.9541 15.9867 53.7008 15.36 53.7008 14.6C53.7008 13.8267 53.9541 13.2067 54.4608 12.74C54.9674 12.2733 55.5941 12.04 56.3408 12.04C57.0874 12.04 57.7141 12.2733 58.2208 12.74C58.7274 13.2067 58.9808 13.8267 58.9808 14.6C58.9808 15.36 58.7274 15.9867 58.2208 16.48C57.7141 16.96 57.0874 17.2 56.3408 17.2Z" fill="#0689E8"/>
</svg>
