<svg width="252" height="72" viewBox="0 0 252 72" fill="none" xmlns="http://www.w3.org/2000/svg">
<path d="M240.304 71.42C237.096 71.42 234.403 70.3887 232.225 68.326C230.048 66.206 228.96 63.5131 228.96 60.2472C228.96 56.924 230.048 54.2597 232.225 52.2544C234.403 50.249 237.096 49.2463 240.304 49.2463C243.513 49.2463 246.206 50.249 248.383 52.2544C250.56 54.2597 251.649 56.924 251.649 60.2472C251.649 63.5131 250.56 66.206 248.383 68.326C246.206 70.3887 243.513 71.42 240.304 71.42Z" fill="#0689E8"/>
<path d="M201.334 71.4199C197.324 71.4199 193.37 70.9902 189.474 70.1308C185.578 69.2713 182.427 68.154 180.02 66.7789L185.349 53.9732C187.583 55.291 190.162 56.3223 193.084 57.0672C196.063 57.812 198.957 58.1845 201.764 58.1845C204.113 58.1845 205.689 57.9839 206.491 57.5829C207.351 57.1818 207.78 56.6375 207.78 55.9499C207.78 55.2623 207.293 54.7753 206.319 54.4888C205.345 54.1451 204.056 53.8872 202.452 53.7153C200.847 53.5435 199.071 53.3429 197.123 53.1137C195.232 52.8273 193.313 52.4262 191.365 51.9105C189.417 51.3948 187.641 50.6213 186.036 49.59C184.432 48.5587 183.143 47.1836 182.169 45.4647C181.195 43.6885 180.708 41.4539 180.708 38.761C180.708 35.7816 181.596 33.0887 183.372 30.6822C185.206 28.2758 187.898 26.3563 191.451 24.9239C195.061 23.4342 199.501 22.6894 204.772 22.6894C208.21 22.6894 211.648 23.0045 215.086 23.6348C218.523 24.265 221.474 25.2391 223.938 26.5569L218.609 39.3626C216.203 38.0448 213.825 37.1567 211.476 36.6983C209.184 36.1827 207.035 35.9248 205.03 35.9248C202.566 35.9248 200.876 36.154 199.959 36.6124C199.1 37.0707 198.67 37.5864 198.67 38.1594C198.67 38.8469 199.157 39.3626 200.131 39.7064C201.105 40.0502 202.394 40.308 203.999 40.4799C205.603 40.6518 207.351 40.881 209.241 41.1674C211.189 41.3966 213.109 41.7977 215 42.3707C216.948 42.8863 218.724 43.6598 220.328 44.6912C221.933 45.7225 223.222 47.1263 224.196 48.9025C225.17 50.6213 225.657 52.8273 225.657 55.5202C225.657 58.3277 224.769 60.9633 222.993 63.4271C221.216 65.8335 218.523 67.7816 214.914 69.2713C211.304 70.7037 206.778 71.4199 201.334 71.4199Z" fill="#1C2C2C"/>
<path d="M154.91 70.5605V23.5488H174.333V70.5605H154.91ZM164.621 19.7672C161.069 19.7672 158.233 18.8219 156.113 16.9311C153.993 15.0403 152.933 12.6911 152.933 9.88362C152.933 7.0761 153.993 4.72695 156.113 2.83617C158.233 0.94539 161.069 0 164.621 0C168.174 0 171.01 0.888094 173.13 2.66428C175.25 4.44047 176.31 6.73232 176.31 9.53985C176.31 12.5193 175.25 14.983 173.13 16.9311C171.01 18.8219 168.174 19.7672 164.621 19.7672Z" fill="#1C2C2C"/>
<path d="M115.714 70.5605V23.5488H134.192V37.7297L131.184 33.6903C132.617 30.0233 134.908 27.2731 138.06 25.4396C141.211 23.6061 144.993 22.6894 149.404 22.6894V39.8783C148.545 39.7637 147.772 39.6777 147.084 39.6204C146.454 39.5631 145.795 39.5345 145.107 39.5345C142.185 39.5345 139.779 40.308 137.888 41.855C136.054 43.3447 135.138 45.9517 135.138 49.676V70.5605H115.714Z" fill="#1C2C2C"/>
<path d="M88.0273 22.6894C91.637 22.6894 94.9029 23.4343 97.825 24.924C100.747 26.3564 103.039 28.6196 104.701 31.7136C106.419 34.8076 107.279 38.8184 107.279 43.7459V70.5606H87.8554V47.0977C87.8554 44.1756 87.3398 42.1129 86.3084 40.9097C85.2771 39.6492 83.8733 39.0189 82.0971 39.0189C80.7793 39.0189 79.5474 39.334 78.4015 39.9643C77.3129 40.5373 76.4248 41.5113 75.7372 42.8864C75.107 44.2615 74.7918 46.1237 74.7918 48.4728V70.5606H55.3684V6.7897H74.7918V37.3L70.1508 33.3466C71.9843 29.7942 74.4481 27.1299 77.5421 25.3537C80.6934 23.5775 84.1885 22.6894 88.0273 22.6894Z" fill="#1C2C2C"/>
<path d="M27.7601 71.4199C22.3742 71.4199 17.59 70.3886 13.4073 68.3259C9.22471 66.2633 5.93017 63.3984 3.52373 59.7315C1.17458 56.0072 0 51.7673 0 47.0117C0 42.2561 1.17458 38.0448 3.52373 34.3778C5.93017 30.7109 9.22471 27.846 13.4073 25.7834C17.59 23.7207 22.3742 22.6894 27.7601 22.6894C33.4897 22.6894 38.3886 23.9212 42.4566 26.385C46.5247 28.8487 49.3322 32.2579 50.8792 36.6124L35.8389 44.0036C34.8648 41.8264 33.6616 40.2507 32.2292 39.2767C30.8541 38.3026 29.3357 37.8156 27.6741 37.8156C26.2417 37.8156 24.8953 38.1594 23.6348 38.8469C22.4315 39.5345 21.4575 40.5658 20.7126 41.9409C20.0251 43.2588 19.6813 44.949 19.6813 47.0117C19.6813 49.0743 20.0251 50.7932 20.7126 52.1683C21.4575 53.5435 22.4315 54.5748 23.6348 55.2623C24.8953 55.9499 26.2417 56.2937 27.6741 56.2937C29.3357 56.2937 30.8541 55.8067 32.2292 54.8326C33.6616 53.8586 34.8648 52.2829 35.8389 50.1057L50.8792 57.4969C49.3322 61.8514 46.5247 65.2606 42.4566 67.7243C38.3886 70.1881 33.4897 71.4199 27.7601 71.4199Z" fill="#1C2C2C"/>
</svg>
